<svg width="40" height="40" fill="none" xmlns="http://www.w3.org/2000/svg"><path d="M37.143 30.481l1.208-1.548.005-.006a7.384 7.384 0 001.638-4.632c0-4.063-3.305-7.368-7.367-7.368-4.063 0-7.368 3.305-7.368 7.368a7.38 7.38 0 001.638 4.632l.03.04 1.182 1.515A4.998 4.998 0 0025.254 35c0 2.757 2.243 5 5 5H35c2.757 0 5-2.243 5-5 0-1.95-1.127-3.7-2.857-4.519zm-10.321-6.186a5.812 5.812 0 015.805-5.805c3.2 0 5.805 2.604 5.805 5.805a5.816 5.816 0 01-1.328 3.696l-4.477 5.74-4.424-5.669a.797.797 0 00-.054-.073 5.813 5.813 0 01-1.327-3.694zM35 38.437h-4.746A3.441 3.441 0 0126.816 35c0-1.46.919-2.756 2.29-3.24l2.905 3.72a.781.781 0 001.232 0l2.904-3.721A3.435 3.435 0 0138.437 35 3.441 3.441 0 0135 38.438zM35 0h-4.746c-2.757 0-5 2.243-5 5a4.99 4.99 0 001.784 3.824L18.59 16.17a.781.781 0 001.025 1.179l8.838-7.684a4.972 4.972 0 001.8.336H35c2.757 0 5-2.243 5-5s-2.243-5-5-5zm0 8.438h-4.746A3.441 3.441 0 0126.816 5a3.441 3.441 0 013.438-3.438H35A3.441 3.441 0 0138.438 5 3.441 3.441 0 0135 8.438zm-17.413 9.567a.787.787 0 00-.552-.23.787.787 0 00-.552.23.787.787 0 00-.23.552.784.784 0 001.334.552.786.786 0 00.23-.552.787.787 0 00-.23-.552z" fill="#fff"/><path d="M20.476 30.257l-5.955-1.922a4.996 4.996 0 00-2.631-6.005l1.207-1.548a7.383 7.383 0 001.643-4.639c0-4.062-3.305-7.367-7.367-7.367-4.062 0-7.367 3.305-7.367 7.368a7.38 7.38 0 001.637 4.632l.03.04 1.183 1.515A4.998 4.998 0 000 26.849c0 2.757 2.243 5 5 5h4.746c1.676 0 3.162-.83 4.07-2.1l6.18 1.995a.78.78 0 00.983-.503.781.781 0 00-.503-.984zM1.568 16.144a5.811 5.811 0 015.805-5.805 5.812 5.812 0 015.805 5.805 5.816 5.816 0 01-1.328 3.696l-4.477 5.739-4.424-5.668a.764.764 0 00-.054-.073 5.812 5.812 0 01-1.327-3.694zm8.178 14.143H5a3.441 3.441 0 01-3.438-3.438c0-1.46.919-2.756 2.29-3.24l2.905 3.72a.781.781 0 001.232 0l2.904-3.721a3.434 3.434 0 012.29 3.24 3.441 3.441 0 01-3.437 3.439zm13.585.982a.787.787 0 00-.552-.23.785.785 0 00-.781.782.784.784 0 00.78.781.784.784 0 00.782-.78.787.787 0 00-.229-.553zM34.54 4.219h-3.828a.781.781 0 100 1.562h3.828a.781.781 0 100-1.562z" fill="#fff"/><path d="M7.372 12.928a3.335 3.335 0 00-3.33 3.33 3.335 3.335 0 003.33 3.332 3.334 3.334 0 003.33-3.331 3.334 3.334 0 00-3.33-3.331zm0 5.099a1.77 1.77 0 01-1.768-1.768 1.77 1.77 0 011.768-1.768 1.77 1.77 0 011.768 1.768 1.77 1.77 0 01-1.768 1.768z" fill="#fff"/><path d="M29.795 24.41c0-1.56 1.27-2.831 2.83-2.831a2.834 2.834 0 012.831 2.83c0 1.561-1.27 2.832-2.83 2.832s-2.831-1.27-2.831-2.831zm.562 0a2.27 2.27 0 002.269 2.268 2.27 2.27 0 002.268-2.268 2.27 2.27 0 00-2.268-2.268 2.27 2.27 0 00-2.269 2.268z" fill="#fff" stroke="#fff"/></svg>